<svg width="228" height="44" viewBox="0 0 228 44" fill="none" xmlns="http://www.w3.org/2000/svg">
<path d="M39.9378 0.0332316L22.8824 1.4882C20.961 1.65212 19.9331 3.88983 21.0319 5.51608L30.7867 19.9516C31.8855 21.5779 34.2876 21.3734 35.1093 19.5833L42.4099 3.69276C43.2324 1.90167 41.8591 -0.130683 39.9378 0.0332316Z" fill="#D21A4D"/>
<path d="M0.0285958 2.78764L1.44584 20.297C1.6055 22.2695 3.78519 23.3248 5.36928 22.1968L19.4305 12.1823C21.0146 11.0543 20.8154 8.58818 19.0717 7.74467L3.59324 0.249722C1.84859 -0.594713 -0.131068 0.815138 0.0285958 2.78764Z" fill="#5A5BEB"/>
<path d="M2.71535 43.7568L19.7707 42.3018C21.6921 42.1379 22.72 39.9002 21.6212 38.2739L11.8664 23.8384C10.7676 22.2121 8.36549 22.4166 7.54385 24.2067L0.243247 40.0972C-0.579292 41.8883 0.794 43.9207 2.71535 43.7568Z" fill="#E0A225"/>
<path d="M42.6402 40.9862L41.223 23.4768C41.0633 21.5043 38.8836 20.449 37.2996 21.5771L23.2374 31.5915C21.6534 32.7196 21.8525 35.1857 23.5962 36.0292L39.0747 43.5241C40.8194 44.3686 42.799 42.9587 42.6402 40.9862Z" fill="#26A66B"/>
<path d="M66.9616 37.4083C64.9308 37.4083 63.118 36.9018 61.5231 35.8898C59.9274 34.8778 58.6662 33.4928 57.7378 31.7358C56.8094 29.9797 56.3457 27.9841 56.3457 25.7501C56.3457 23.517 56.8094 21.5289 57.7378 19.7875C58.6662 18.0452 59.9274 16.6759 61.5231 15.6777C63.118 14.6804 64.9317 14.1813 66.9616 14.1813C68.586 14.1813 70.0069 14.4943 71.225 15.1196C72.4431 15.7449 73.4289 16.6234 74.1832 17.7551V5.30225H79.7527L79.8818 37.4083H74.9215L74.1841 33.7009C73.4881 34.6835 72.5669 35.5472 71.4214 36.2913C70.2751 37.0353 68.7887 37.4083 66.9616 37.4083ZM68.1366 32.4052C69.9351 32.4052 71.4062 31.7873 72.5525 30.5515C73.698 29.3166 74.2712 27.73 74.2712 25.7943C74.2712 23.8587 73.698 22.2729 72.5525 21.0371C71.4062 19.8013 69.9342 19.1834 68.1366 19.1834C66.3669 19.1834 64.9021 19.7939 63.7423 21.0141C62.5816 22.2361 62.0021 23.8135 62.0021 25.7492C62.0021 27.6858 62.5825 29.278 63.7423 30.5285C64.9021 31.78 66.3669 32.4052 68.1366 32.4052Z" fill="white"/>
<path d="M93.9202 37.4083C91.745 37.4083 89.8155 36.9312 88.1337 35.9791C86.4509 35.026 85.1314 33.6861 84.1744 31.9595C83.2173 30.2329 82.7383 28.2373 82.7383 25.9738C82.7383 23.6809 83.2092 21.6412 84.1519 19.8547C85.0938 18.0682 86.3998 16.6758 88.0682 15.6785C89.7357 14.6812 91.701 14.1821 93.9641 14.1821C96.081 14.1821 97.9521 14.6591 99.5766 15.6113C101.201 16.5644 102.47 17.8674 103.383 19.5195C104.297 21.1715 104.754 23.0114 104.754 25.0355C104.754 25.3633 104.747 25.7059 104.732 26.0632C104.717 26.4205 104.696 26.7934 104.667 27.1802H88.2646C88.3804 28.9077 88.9679 30.2623 90.0263 31.2449C91.0848 32.2275 92.3684 32.7192 93.8771 32.7192C95.0082 32.7192 95.9581 32.4586 96.7268 31.9374C97.4947 31.4171 98.0678 30.7393 98.4455 29.905H104.102C103.696 31.3047 103.021 32.5783 102.079 33.7239C101.136 34.8703 99.9757 35.7719 98.5989 36.4266C97.2193 37.0804 95.6603 37.4083 93.9202 37.4083ZM93.9632 18.827C92.5998 18.827 91.396 19.222 90.3519 20.0103C89.3078 20.7995 88.6405 21.9985 88.3507 23.6063H99.0976C99.0106 22.1476 98.4885 20.9864 97.5314 20.1217C96.5744 19.2589 95.384 18.827 93.9632 18.827Z" fill="white"/>
<path d="M110.568 37.4084V20.0326H107.609V15.2533H110.568V12.6629C110.568 9.98315 111.227 8.07788 112.547 6.94521C113.867 5.81438 115.658 5.24805 117.921 5.24805H120.314V10.1167H118.791C117.834 10.1167 117.152 10.311 116.746 10.6977C116.34 11.0845 116.137 11.7402 116.137 12.6629V15.2533H120.792V20.0326H116.137V37.4084H110.568Z" fill="white"/>
<path d="M131.739 37.4086C129.882 37.4086 128.359 37.1029 127.171 36.4924C125.981 35.8828 125.097 35.0706 124.517 34.0585C123.936 33.0465 123.646 31.9304 123.646 30.7084C123.646 28.6539 124.43 26.9863 125.996 25.7062C127.562 24.4262 129.912 23.7853 133.044 23.7853H138.527V23.2494C138.527 21.7309 138.106 20.6138 137.265 19.8993C136.424 19.1847 135.379 18.8274 134.132 18.8274C133.001 18.8274 132.015 19.1027 131.174 19.6534C130.333 20.205 129.811 21.0153 129.608 22.0872H124.169C124.314 20.4794 124.844 19.0797 125.757 17.8881C126.671 16.6974 127.852 15.7821 129.303 15.1411C130.753 14.5011 132.377 14.1807 134.176 14.1807C137.25 14.1807 139.672 14.9698 141.442 16.5482C143.211 18.1266 144.096 20.3597 144.096 23.2485V37.2595H139.354L138.832 33.2979C138.193 34.4895 137.301 35.4721 136.156 36.2456C135.009 37.021 133.537 37.4086 131.739 37.4086ZM133 32.9415C134.595 32.9415 135.835 32.4056 136.72 31.3328C137.605 30.2609 138.162 28.9367 138.395 27.3574H133.652C132.173 27.3574 131.114 27.6327 130.476 28.1834C129.838 28.735 129.519 29.4118 129.519 30.2157C129.519 31.0795 129.838 31.7499 130.476 32.226C131.115 32.7039 131.956 32.9415 133 32.9415Z" fill="white"/>
<path d="M158.22 37.4083C156.015 37.4083 154.071 36.9174 152.39 35.9339C150.707 34.9514 149.38 33.5821 148.409 31.825C147.436 30.068 146.951 28.0578 146.951 25.7952C146.951 23.5326 147.436 21.5224 148.409 19.7654C149.38 18.0093 150.707 16.639 152.39 15.6564C154.071 14.6739 156.015 14.1821 158.22 14.1821C160.976 14.1821 163.295 14.9188 165.182 16.3931C167.066 17.8674 168.271 19.8998 168.793 22.4902H162.919C162.629 21.4183 162.056 20.5766 161.201 19.9661C160.345 19.3565 159.337 19.0508 158.177 19.0508C156.64 19.0508 155.334 19.6466 154.261 20.8372C153.187 22.0279 152.651 23.6809 152.651 25.7952C152.651 27.9095 153.187 29.5625 154.261 30.7531C155.334 31.9448 156.64 32.5396 158.177 32.5396C159.337 32.5396 160.345 32.2422 161.201 31.6464C162.056 31.0515 162.629 30.2025 162.919 29.1002H168.793C168.271 31.6013 167.066 33.6115 165.182 35.13C163.295 36.6485 160.976 37.4083 158.22 37.4083Z" fill="white"/>
<path d="M182.829 37.4087C180.567 37.4087 178.753 36.8433 177.391 35.7115C176.028 34.5807 175.346 32.5704 175.346 29.6817V20.0328H171.648V15.2535H175.346L175.999 9.31299H180.915V15.2535H186.745V20.0328H180.915V29.7259C180.915 30.7978 181.139 31.5354 181.59 31.9369C182.039 32.3393 182.815 32.54 183.917 32.54H186.615V37.4087H182.829Z" fill="white"/>
<path d="M200.651 37.4086C198.562 37.4086 196.683 36.9178 195.016 35.9343C193.348 34.9518 192.028 33.5889 191.057 31.8475C190.085 30.1052 189.6 28.0885 189.6 25.7947C189.6 23.5017 190.092 21.4841 191.079 19.7418C192.065 17.9995 193.391 16.6375 195.06 15.655C196.728 14.6724 198.606 14.1807 200.694 14.1807C202.753 14.1807 204.617 14.6715 206.285 15.655C207.953 16.6375 209.272 17.9995 210.245 19.7418C211.216 21.4841 211.702 23.5017 211.702 25.7947C211.702 28.0885 211.216 30.1052 210.245 31.8475C209.272 33.5898 207.946 34.9518 206.263 35.9343C204.58 36.9178 202.709 37.4086 200.651 37.4086ZM200.651 32.4507C202.1 32.4507 203.362 31.8926 204.436 30.7756C205.509 29.6586 206.046 27.9992 206.046 25.7956C206.046 23.5919 205.509 21.9316 204.436 20.8155C203.362 19.6985 202.114 19.1405 200.694 19.1405C199.214 19.1405 197.944 19.6985 196.886 20.8155C195.827 21.9325 195.298 23.5919 195.298 25.7956C195.298 27.9992 195.827 29.6595 196.886 30.7756C197.945 31.8926 199.199 32.4507 200.651 32.4507Z" fill="white"/>
<path d="M214.557 37.4084V15.2532H219.517L220.039 19.4073C220.822 17.9781 221.888 16.839 223.237 15.9908C224.586 15.1418 226.174 14.7173 228.001 14.7173V20.7471H226.435C225.216 20.7471 224.128 20.9414 223.171 21.3273C222.214 21.715 221.467 22.3844 220.931 23.3375C220.393 24.2915 220.126 25.6158 220.126 27.3129V37.4075L214.557 37.4084Z" fill="white"/>
</svg>
