<svg width="152" height="40" viewBox="0 0 152 40" fill="none" xmlns="http://www.w3.org/2000/svg">
<path d="M1.33924 8.60405L1.30049 22.0529C1.29611 23.568 2.97067 24.5259 4.31464 23.7774L16.245 17.1323C17.5889 16.3838 17.5948 14.4896 16.2551 13.7238L4.36359 6.92009C3.02321 6.15348 1.34362 7.08899 1.33924 8.60405Z" fill="#E0A225" style="fill:#E0A225;fill:color(display-p3 0.8784 0.6353 0.1451);fill-opacity:1;"/>
<path d="M31.2843 23.9347C29.7626 23.9347 28.4042 23.5572 27.2091 22.8027C26.0134 22.0482 25.0684 21.0157 24.3727 19.7059C23.6771 18.3968 23.3296 16.9091 23.3296 15.2437C23.3296 13.579 23.6771 12.0968 24.3727 10.7986C25.0684 9.49978 26.0134 8.47891 27.2091 7.73476C28.4042 6.99128 29.7633 6.61921 31.2843 6.61921C32.5015 6.61921 33.5662 6.85262 34.479 7.31878C35.3917 7.78486 36.1304 8.43977 36.6957 9.28351V0H40.8689L40.9657 23.9347H37.2488L36.6964 21.1709C36.1748 21.9034 35.4845 22.5473 34.6261 23.102C33.7672 23.6567 32.6535 23.9347 31.2843 23.9347ZM32.1648 20.205C33.5124 20.205 34.6147 19.7444 35.4737 18.8231C36.332 17.9025 36.7615 16.7196 36.7615 15.2767C36.7615 13.8336 36.332 12.6515 35.4737 11.7302C34.6147 10.8089 33.5117 10.3483 32.1648 10.3483C30.8387 10.3483 29.7411 10.8034 28.872 11.713C28.0023 12.624 27.5681 13.8 27.5681 15.243C27.5681 16.6867 28.003 17.8736 28.872 18.8059C29.7411 19.7389 30.8387 20.205 32.1648 20.205Z" fill="white" style="fill:white;fill-opacity:1;"/>
<path d="M52.123 23.9344C50.4428 23.9344 48.9524 23.5722 47.6532 22.8492C46.3535 22.1255 45.3342 21.1082 44.5949 19.797C43.8556 18.486 43.4856 16.9708 43.4856 15.252C43.4856 13.5109 43.8494 11.9621 44.5776 10.6056C45.3051 9.24907 46.3139 8.19186 47.6027 7.43459C48.8908 6.67732 50.4089 6.29834 52.157 6.29834C53.7922 6.29834 55.2375 6.66054 56.4923 7.38356C57.7473 8.10727 58.7276 9.09667 59.4328 10.3511C60.1381 11.6055 60.4918 13.0026 60.4918 14.5395C60.4918 14.7885 60.4857 15.0485 60.4748 15.3198C60.4633 15.5912 60.4463 15.8744 60.4246 16.168H47.7544C47.8438 17.4798 48.2976 18.5084 49.1153 19.2544C49.9328 20.0005 50.9243 20.3739 52.0898 20.3739C52.9635 20.3739 53.6972 20.176 54.291 19.7803C54.8841 19.3852 55.3269 18.8706 55.6185 18.2371H59.9882C59.6738 19.2999 59.1532 20.267 58.4255 21.1368C57.6971 22.0073 56.8006 22.6919 55.737 23.1891C54.6714 23.6855 53.4672 23.9344 52.123 23.9344ZM52.1563 9.82524C51.1031 9.82524 50.1733 10.1252 49.3668 10.7237C48.5603 11.323 48.0447 12.2334 47.8209 13.4543H56.1223C56.0551 12.3467 55.6518 11.465 54.9125 10.8084C54.1732 10.1532 53.2538 9.82524 52.1563 9.82524Z" fill="white" style="fill:white;fill-opacity:1;"/>
<path d="M64.0137 23.9347V11.0031H61.7517V7.44621H64.0137V5.51835C64.0137 3.524 64.5175 2.10604 65.5266 1.26308C66.5356 0.42148 67.9048 0 69.6347 0H71.4641V3.6234H70.2998C69.5682 3.6234 69.0469 3.768 68.7365 4.05579C68.4261 4.34366 68.271 4.83165 68.271 5.51835V7.44621H71.8295V11.0031H68.271V23.9347H64.0137Z" fill="white" style="fill:white;fill-opacity:1;"/>
<path d="M79.0719 23.9349C77.6993 23.9349 76.5734 23.7111 75.6953 23.2641C74.8156 22.8178 74.1622 22.2232 73.7327 21.4822C73.304 20.7412 73.0896 19.9241 73.0896 19.0294C73.0896 17.5252 73.6684 16.3043 74.8267 15.3671C75.9843 14.4299 77.7214 13.9607 80.0366 13.9607H84.0896V13.5683C84.0896 12.4566 83.7784 11.6387 83.1568 11.1156C82.5351 10.5924 81.7626 10.3308 80.8409 10.3308C80.0048 10.3308 79.2752 10.5323 78.6543 10.9355C78.0326 11.3394 77.646 11.9326 77.4967 12.7174H73.4762C73.5834 11.5403 73.9752 10.5155 74.6501 9.64307C75.3257 8.7713 76.1987 8.10117 77.2713 7.63186C78.3431 7.16329 79.5436 6.92871 80.8734 6.92871C83.1457 6.92871 84.936 7.50645 86.2444 8.66207C87.5521 9.81769 88.2062 11.4526 88.2062 13.5677V23.8258H84.701L84.3151 20.9253C83.8428 21.7977 83.1834 22.5171 82.337 23.0835C81.4891 23.6512 80.401 23.9349 79.0719 23.9349ZM80.0041 20.6644C81.1831 20.6644 82.0997 20.272 82.7539 19.4866C83.4074 18.7018 83.8198 17.7323 83.9921 16.576H80.486C79.3928 16.576 78.6099 16.7775 78.1383 17.1807C77.6667 17.5846 77.4309 18.0801 77.4309 18.6687C77.4309 19.3011 77.6667 19.7919 78.1383 20.1405C78.6107 20.4904 79.2324 20.6644 80.0041 20.6644Z" fill="white" style="fill:white;fill-opacity:1;"/>
<path d="M99.1743 23.9349C97.521 23.9349 96.0634 23.5756 94.8023 22.8555C93.5404 22.136 92.5461 21.1334 91.8173 19.8469C91.0885 18.5604 90.7249 17.0885 90.7249 15.4318C90.7249 13.7752 91.0885 12.3032 91.8173 11.0167C92.5461 9.73093 93.5404 8.72766 94.8023 8.0082C96.0634 7.28874 97.521 6.92871 99.1743 6.92871C101.24 6.92871 102.98 7.46813 104.394 8.54761C105.807 9.6271 106.71 11.1152 107.101 13.0119H102.698C102.479 12.2271 102.05 11.6108 101.409 11.1637C100.768 10.7174 100.011 10.4935 99.1421 10.4935C97.9889 10.4935 97.0097 10.9298 96.2051 11.8016C95.4006 12.6734 94.998 13.8837 94.998 15.4318C94.998 16.98 95.4006 18.1902 96.2051 19.0621C97.0097 19.9345 97.9889 20.3701 99.1421 20.3701C100.011 20.3701 100.768 20.1523 101.409 19.7161C102.05 19.2805 102.479 18.6588 102.698 17.8517H107.101C106.71 19.683 105.807 21.155 104.394 22.2668C102.98 23.3787 101.24 23.9349 99.1743 23.9349Z" fill="white" style="fill:white;fill-opacity:1;"/>
<path d="M116.922 23.9348C115.317 23.9348 114.031 23.5165 113.064 22.6793C112.097 21.8426 111.614 20.3555 111.614 18.2183V11.0801H108.991V7.54429H111.614L112.077 3.14941H115.565V7.54429H119.699V11.0801H115.565V18.251C115.565 19.044 115.723 19.5897 116.043 19.8867C116.361 20.1844 116.912 20.333 117.694 20.333H119.607V23.9348H116.922Z" fill="white" style="fill:white;fill-opacity:1;"/>
<path d="M129.777 24.5648C128.229 24.5648 126.836 24.1922 125.601 23.4454C124.365 22.6994 123.387 21.6646 122.668 20.3425C121.948 19.0196 121.588 17.4884 121.588 15.7468C121.588 14.0058 121.953 12.4739 122.684 11.1511C123.415 9.82819 124.397 8.79407 125.635 8.04809C126.87 7.30204 128.261 6.92871 129.809 6.92871C131.334 6.92871 132.715 7.30136 133.952 8.04809C135.187 8.79407 136.165 9.82819 136.885 11.1511C137.605 12.4739 137.965 14.0058 137.965 15.7468C137.965 17.4884 137.605 19.0196 136.885 20.3425C136.165 21.6653 135.182 22.6994 133.935 23.4454C132.688 24.1922 131.301 24.5648 129.777 24.5648ZM129.777 20.8005C130.85 20.8005 131.785 20.3767 132.581 19.5286C133.376 18.6805 133.774 17.4206 133.774 15.7475C133.774 14.0743 133.376 12.8137 132.581 11.9663C131.785 11.1182 130.861 10.6945 129.808 10.6945C128.713 10.6945 127.771 11.1182 126.987 11.9663C126.202 12.8144 125.81 14.0743 125.81 15.7475C125.81 17.4206 126.202 18.6812 126.987 19.5286C127.772 20.3767 128.701 20.8005 129.777 20.8005Z" fill="white" style="fill:white;fill-opacity:1;"/>
<path d="M141.114 23.9349V7.33035H144.832L145.223 10.4437C145.81 9.37257 146.609 8.51885 147.62 7.88316C148.632 7.24686 149.822 6.92871 151.192 6.92871V11.4478H150.018C149.105 11.4478 148.289 11.5935 147.572 11.8827C146.854 12.1733 146.294 12.6749 145.892 13.3893C145.489 14.1043 145.288 15.0968 145.288 16.3687V23.9343L141.114 23.9349Z" fill="white" style="fill:white;fill-opacity:1;"/>
<path d="M150.575 37.1929V33.9449C150.575 32.6853 149.888 32.0398 148.847 32.0398C147.785 32.0398 147.046 32.7061 147.046 34.0907V37.1929H146.318V31.5089H147.046V32.4771C147.411 31.7691 148.139 31.4048 148.983 31.4048C150.274 31.4048 151.294 32.196 151.294 33.8616V37.1929H150.575Z" fill="white" style="fill:white;fill-opacity:1;"/>
<path d="M144.989 34.3511C144.989 36.1521 143.73 37.2764 142.127 37.2764C140.523 37.2764 139.305 36.1521 139.305 34.3511C139.305 32.5397 140.555 31.4258 142.147 31.4258C143.751 31.4258 144.989 32.5397 144.989 34.3511ZM140.045 34.3511C140.045 35.9126 141.044 36.6414 142.127 36.6414C143.199 36.6414 144.24 35.9126 144.24 34.3511C144.24 32.7895 143.22 32.0608 142.137 32.0608C141.054 32.0608 140.045 32.7895 140.045 34.3511Z" fill="white" style="fill:white;fill-opacity:1;"/>
<path d="M137.259 37.1929V31.5088H137.988V37.1929H137.259ZM137.623 30.4365C137.332 30.4365 137.093 30.2075 137.093 29.8952C137.093 29.5829 137.332 29.3643 137.623 29.3643C137.915 29.3643 138.154 29.5829 138.154 29.8952C138.154 30.2075 137.915 30.4365 137.623 30.4365Z" fill="white" style="fill:white;fill-opacity:1;"/>
<path d="M133.757 35.6526V32.1234H132.966V31.5092H133.757V30.083H134.496V31.5092H136.058V32.1234H134.496V35.6526C134.496 36.35 134.736 36.5687 135.391 36.5687H136.058V37.1933H135.277C134.288 37.1933 133.757 36.7873 133.757 35.6526Z" fill="white" style="fill:white;fill-opacity:1;"/>
<path d="M126.19 34.3407C126.19 32.5605 127.346 31.4258 128.908 31.4258C130.053 31.4258 130.833 32.04 131.156 32.7583V31.5091H131.885V37.1931H131.156V35.9335C130.823 36.6622 130.032 37.2764 128.897 37.2764C127.346 37.2764 126.19 36.1209 126.19 34.3407ZM131.156 34.3511C131.156 32.9353 130.209 32.0608 129.043 32.0608C127.846 32.0608 126.93 32.8936 126.93 34.3407C126.93 35.7773 127.846 36.6414 129.043 36.6414C130.209 36.6414 131.156 35.7669 131.156 34.3511Z" fill="white" style="fill:white;fill-opacity:1;"/>
<path d="M120.154 31.5093H120.935L122.851 36.4854L124.766 31.5093H125.536L123.257 37.1933H122.434L120.154 31.5093Z" fill="white" style="fill:white;fill-opacity:1;"/>
<path d="M119.502 34.3511C119.502 36.1521 118.243 37.2764 116.639 37.2764C115.036 37.2764 113.818 36.1521 113.818 34.3511C113.818 32.5397 115.067 31.4258 116.66 31.4258C118.263 31.4258 119.502 32.5397 119.502 34.3511ZM114.557 34.3511C114.557 35.9126 115.557 36.6414 116.639 36.6414C117.712 36.6414 118.753 35.9126 118.753 34.3511C118.753 32.7895 117.732 32.0608 116.65 32.0608C115.567 32.0608 114.557 32.7895 114.557 34.3511Z" fill="white" style="fill:white;fill-opacity:1;"/>
<path d="M111.821 37.1929V33.9449C111.821 32.6853 111.134 32.0398 110.093 32.0398C109.031 32.0398 108.292 32.7061 108.292 34.0907V37.1929H107.563V31.5089H108.292V32.4771C108.657 31.7691 109.385 31.4048 110.229 31.4048C111.519 31.4048 112.54 32.196 112.54 33.8616V37.1929H111.821Z" fill="white" style="fill:white;fill-opacity:1;"/>
<path d="M105.233 37.1929V33.9449C105.233 32.6853 104.546 32.0398 103.505 32.0398C102.443 32.0398 101.704 32.7061 101.704 34.0907V37.1929H100.976V31.5089H101.704V32.4771C102.069 31.7691 102.797 31.4048 103.641 31.4048C104.932 31.4048 105.952 32.196 105.952 33.8616V37.1929H105.233Z" fill="white" style="fill:white;fill-opacity:1;"/>
<path d="M98.5967 37.1933V29.9165H99.3254V37.1933H98.5967Z" fill="white" style="fill:white;fill-opacity:1;"/>
<path d="M92.4116 31.4159H91.6829C91.6933 30.76 91.2144 30.406 90.6523 30.406C90.0068 30.406 89.58 30.8016 89.58 31.3534C89.58 31.8219 89.8403 32.207 90.34 32.738L92.7343 35.1636C92.8697 34.9762 92.9946 34.768 93.1299 34.539L93.7962 33.4251H94.577L93.7858 34.7888C93.5984 35.1115 93.411 35.403 93.2236 35.6633L94.7435 37.1936H93.7962L92.8072 36.1838C92.0993 36.9542 91.3289 37.3185 90.3087 37.3185C88.8409 37.3185 87.8311 36.4441 87.8311 35.1115C87.8311 34.0913 88.4244 33.3105 89.5488 32.8733C89.0595 32.3424 88.8513 31.9051 88.8513 31.3638C88.8513 30.4477 89.5696 29.8022 90.6835 29.8022C91.7245 29.8022 92.4533 30.4581 92.4116 31.4159ZM90.3087 36.6835C91.1311 36.6835 91.7454 36.3712 92.3283 35.6945L90.0068 33.3418C89.0178 33.7061 88.5598 34.2891 88.5598 35.0907C88.5598 36.0068 89.2781 36.6835 90.3087 36.6835Z" fill="white" style="fill:white;fill-opacity:1;"/>
<path d="M81.7892 36.3605L83.6631 31.5093H84.4126L81.0396 39.8688H80.2797L81.3832 37.1621L79.0513 31.5093H79.8529L81.7892 36.3605Z" fill="white" style="fill:white;fill-opacity:1;"/>
<path d="M72.3699 34.3407C72.3699 32.5605 73.5254 31.4258 75.087 31.4258C76.2113 31.4258 77.0129 32.0296 77.3356 32.7479V31.5091H78.0643V37.3389C78.0643 38.9317 76.9713 39.9831 75.4097 39.9831C73.9418 39.9831 72.9216 39.2336 72.6926 38.0468H73.4109C73.6503 38.8171 74.3687 39.3481 75.4097 39.3481C76.4924 39.3481 77.3356 38.6298 77.3356 37.3389V35.9335C77.0025 36.6622 76.2113 37.2764 75.087 37.2764C73.5254 37.2764 72.3699 36.1209 72.3699 34.3407ZM77.3356 34.3511C77.3356 32.9353 76.3883 32.0608 75.2223 32.0608C74.0251 32.0608 73.109 32.8936 73.109 34.3407C73.109 35.7773 74.0251 36.6414 75.2223 36.6414C76.3883 36.6414 77.3356 35.7669 77.3356 34.3511Z" fill="white" style="fill:white;fill-opacity:1;"/>
<path d="M71.3742 34.3511C71.3742 36.1521 70.1146 37.2764 68.5114 37.2764C66.9082 37.2764 65.6902 36.1521 65.6902 34.3511C65.6902 32.5397 66.9394 31.4258 68.5322 31.4258C70.1354 31.4258 71.3742 32.5397 71.3742 34.3511ZM66.4293 34.3511C66.4293 35.9126 67.4287 36.6414 68.5114 36.6414C69.5837 36.6414 70.6247 35.9126 70.6247 34.3511C70.6247 32.7895 69.6045 32.0608 68.5218 32.0608C67.4391 32.0608 66.4293 32.7895 66.4293 34.3511Z" fill="white" style="fill:white;fill-opacity:1;"/>
<path d="M63.6445 37.1934V29.4897H64.3733V37.1934H63.6445Z" fill="white" style="fill:white;fill-opacity:1;"/>
<path d="M62.3169 34.3511C62.3169 36.1521 61.0572 37.2764 59.454 37.2764C57.8508 37.2764 56.6328 36.1521 56.6328 34.3511C56.6328 32.5397 57.8821 31.4258 59.4748 31.4258C61.078 31.4258 62.3169 32.5397 62.3169 34.3511ZM57.3719 34.3511C57.3719 35.9126 58.3713 36.6414 59.454 36.6414C60.5263 36.6414 61.5673 35.9126 61.5673 34.3511C61.5673 32.7895 60.5471 32.0608 59.4644 32.0608C58.3818 32.0608 57.3719 32.7895 57.3719 34.3511Z" fill="white" style="fill:white;fill-opacity:1;"/>
<path d="M54.6355 37.1929V33.9449C54.6355 32.6853 53.9484 32.0398 52.9074 32.0398C51.8455 32.0398 51.1064 32.7061 51.1064 34.0907V37.1929H50.3777V31.5089H51.1064V32.4771C51.4708 31.7691 52.1995 31.4048 53.0427 31.4048C54.3336 31.4048 55.3538 32.196 55.3538 33.8616V37.1929H54.6355Z" fill="white" style="fill:white;fill-opacity:1;"/>
<path d="M43.7893 37.1934V29.4897H44.518V32.4775C44.8824 31.78 45.6319 31.4053 46.496 31.4053C47.7557 31.4053 48.7655 32.1964 48.7655 33.8621V37.1934H48.0471V33.9454C48.0471 32.6857 47.3601 32.0403 46.319 32.0403C45.2572 32.0403 44.518 32.7065 44.518 34.0911V37.1934H43.7893Z" fill="white" style="fill:white;fill-opacity:1;"/>
<path d="M37.0723 34.3511C37.0723 32.5501 38.2278 31.4258 39.831 31.4258C41.2572 31.4258 42.1838 32.1857 42.444 33.3621H41.6632C41.4758 32.5501 40.7888 32.0504 39.831 32.0504C38.7171 32.0504 37.8114 32.8104 37.8114 34.3511C37.8114 35.8918 38.7171 36.6622 39.831 36.6622C40.7888 36.6622 41.4654 36.1729 41.6632 35.3401H42.444C42.1838 36.4748 41.2572 37.2764 39.831 37.2764C38.2278 37.2764 37.0723 36.1521 37.0723 34.3511Z" fill="white" style="fill:white;fill-opacity:1;"/>
<path d="M33.3552 32.0504C32.3246 32.0504 31.4189 32.7167 31.3356 34.0388H35.3332C35.3644 32.7167 34.4066 32.0504 33.3552 32.0504ZM35.989 35.3921C35.7287 36.4644 34.8126 37.2764 33.3864 37.2764C31.7728 37.2764 30.5964 36.1521 30.5964 34.3511C30.5964 32.5397 31.752 31.4258 33.3864 31.4258C35.0521 31.4258 36.0723 32.6126 36.0723 34.0596C36.0723 34.2886 36.0723 34.4344 36.0515 34.6322H31.3356C31.398 35.9647 32.3246 36.6622 33.3864 36.6622C34.3546 36.6622 35.0104 36.1521 35.2186 35.3921H35.989Z" fill="white" style="fill:white;fill-opacity:1;"/>
<path d="M25.0002 30.5203V29.9165H29.7786V30.5203H27.759V37.1933H27.0303V30.5203H25.0002Z" fill="white" style="fill:white;fill-opacity:1;"/>
</svg>
