<svg width="50" height="45" viewBox="0 0 50 45" fill="none" xmlns="http://www.w3.org/2000/svg">
    <path
        d="M40.9891 0.0339314L23.4849 1.52197C21.5131 1.68961 20.458 3.97818 21.5857 5.64139L31.5972 20.405C32.7249 22.0682 35.1903 21.8591 36.0336 20.0283L43.5263 3.77663C44.3704 1.94483 42.961 -0.133708 40.9891 0.0339314Z"
        fill="#D21A4D"
        style="fill:#D21A4D;fill:color(display-p3 0.8235 0.1020 0.3020);fill-opacity:1;" />
    <path
        d="M0.0288344 2.851L1.48338 20.7583C1.64724 22.7756 3.88429 23.8549 5.51006 22.7013L19.9413 12.4592C21.567 11.3055 21.3627 8.78337 19.573 7.92068L3.68728 0.255397C1.89673 -0.608229 -0.135032 0.833664 0.0288344 2.851Z"
        fill="#5A5BEB"
        style="fill:#5A5BEB;fill:color(display-p3 0.3529 0.3569 0.9216);fill-opacity:1;" />
    <path
        d="M2.78681 44.7514L20.291 43.2634C22.2629 43.0957 23.3179 40.8072 22.1902 39.144L12.1787 24.3803C11.051 22.7172 8.58563 22.9262 7.74237 24.7571L0.249648 41.0088C-0.594536 42.8406 0.814895 44.9191 2.78681 44.7514Z"
        fill="#E0A225"
        style="fill:#E0A225;fill:color(display-p3 0.8784 0.6353 0.1451);fill-opacity:1;" />
    <path
        d="M43.7613 41.9178L42.3067 24.0105C42.1429 21.9931 39.9058 20.9138 38.28 22.0676L23.8479 32.3096C22.2221 33.4633 22.4264 35.9855 24.2161 36.8481L40.1019 44.5134C41.8924 45.3771 43.9242 43.9351 43.7613 41.9178Z"
        fill="#26A66B"
        style="fill:#26A66B;fill:color(display-p3 0.1490 0.6510 0.4196);fill-opacity:1;" />
</svg>