<svg width="152" height="40" viewBox="0 0 152 40" fill="none" xmlns="http://www.w3.org/2000/svg">
<path d="M1.33949 8.60405L1.30073 22.0529C1.29635 23.568 2.97092 24.5259 4.31489 23.7774L16.2452 17.1323C17.5892 16.3838 17.595 14.4896 16.2553 13.7238L4.36383 6.92009C3.02346 6.15348 1.34386 7.08899 1.33949 8.60405Z" fill="#E0A225" style="fill:#E0A225;fill:color(display-p3 0.8784 0.6353 0.1451);fill-opacity:1;"/>
<path d="M31.2843 23.9347C29.7626 23.9347 28.4042 23.5572 27.2091 22.8027C26.0134 22.0482 25.0684 21.0157 24.3727 19.7059C23.6771 18.3968 23.3296 16.9091 23.3296 15.2437C23.3296 13.579 23.6771 12.0968 24.3727 10.7986C25.0684 9.49978 26.0134 8.47891 27.2091 7.73476C28.4042 6.99128 29.7633 6.61921 31.2843 6.61921C32.5015 6.61921 33.5662 6.85262 34.479 7.31878C35.3917 7.78486 36.1304 8.43977 36.6957 9.28351V0H40.8689L40.9657 23.9347H37.2488L36.6964 21.1709C36.1748 21.9034 35.4845 22.5473 34.6261 23.102C33.7672 23.6567 32.6535 23.9347 31.2843 23.9347ZM32.1648 20.205C33.5124 20.205 34.6147 19.7444 35.4737 18.8231C36.332 17.9025 36.7615 16.7196 36.7615 15.2767C36.7615 13.8336 36.332 12.6515 35.4737 11.7302C34.6147 10.8089 33.5117 10.3483 32.1648 10.3483C30.8387 10.3483 29.7411 10.8034 28.872 11.713C28.0023 12.624 27.5681 13.8 27.5681 15.243C27.5681 16.6867 28.003 17.8736 28.872 18.8059C29.7411 19.7389 30.8387 20.205 32.1648 20.205Z" fill="black" style="fill:black;fill-opacity:1;"/>
<path d="M52.1232 23.9344C50.443 23.9344 48.9527 23.5722 47.6535 22.8492C46.3537 22.1255 45.3345 21.1082 44.5951 19.797C43.8558 18.486 43.4858 16.9708 43.4858 15.252C43.4858 13.5109 43.8497 11.9621 44.5778 10.6056C45.3053 9.24907 46.3142 8.19186 47.6029 7.43459C48.891 6.67732 50.4091 6.29834 52.1572 6.29834C53.7924 6.29834 55.2377 6.66054 56.4925 7.38356C57.7476 8.10727 58.7278 9.09667 59.4331 10.3511C60.1383 11.6055 60.4921 13.0026 60.4921 14.5395C60.4921 14.7885 60.4859 15.0485 60.4751 15.3198C60.4635 15.5912 60.4465 15.8744 60.4249 16.168H47.7547C47.8441 17.4798 48.2979 18.5084 49.1155 19.2544C49.9331 20.0005 50.9246 20.3739 52.09 20.3739C52.9637 20.3739 53.6975 20.176 54.2913 19.7803C54.8844 19.3852 55.3271 18.8706 55.6188 18.2371H59.9884C59.6741 19.2999 59.1534 20.267 58.4258 21.1368C57.6974 22.0073 56.8009 22.6919 55.7373 23.1891C54.6716 23.6855 53.4675 23.9344 52.1232 23.9344ZM52.1565 9.82524C51.1033 9.82524 50.1735 10.1252 49.367 10.7237C48.5605 11.323 48.045 12.2334 47.8212 13.4543H56.1225C56.0553 12.3467 55.6521 11.465 54.9128 10.8084C54.1735 10.1532 53.254 9.82524 52.1565 9.82524Z" fill="black" style="fill:black;fill-opacity:1;"/>
<path d="M64.0135 23.9347V11.0031H61.7515V7.44621H64.0135V5.51835C64.0135 3.524 64.5172 2.10604 65.5263 1.26308C66.5354 0.42148 67.9045 0 69.6345 0H71.4638V3.6234H70.2996C69.568 3.6234 69.0466 3.768 68.7363 4.05579C68.4259 4.34366 68.2707 4.83165 68.2707 5.51835V7.44621H71.8292V11.0031H68.2707V23.9347H64.0135Z" fill="black" style="fill:black;fill-opacity:1;"/>
<path d="M79.0717 23.9349C77.699 23.9349 76.5732 23.7111 75.695 23.2641C74.8154 22.8178 74.1619 22.2232 73.7325 21.4822C73.3037 20.7412 73.0894 19.9241 73.0894 19.0294C73.0894 17.5252 73.6681 16.3043 74.8265 15.3671C75.9841 14.4299 77.7212 13.9607 80.0364 13.9607H84.0894V13.5683C84.0894 12.4566 83.7782 11.6387 83.1565 11.1156C82.5349 10.5924 81.7624 10.3308 80.8406 10.3308C80.0046 10.3308 79.275 10.5323 78.6541 10.9355C78.0324 11.3394 77.6458 11.9326 77.4965 12.7174H73.476C73.5831 11.5403 73.9749 10.5155 74.6498 9.64307C75.3254 8.7713 76.1984 8.10117 77.271 7.63186C78.3428 7.16329 79.5433 6.92871 80.8731 6.92871C83.1454 6.92871 84.9358 7.50645 86.2442 8.66207C87.5518 9.81769 88.206 11.4526 88.206 13.5677V23.8258H84.7007L84.3149 20.9253C83.8425 21.7977 83.1831 22.5171 82.3368 23.0835C81.4889 23.6512 80.4008 23.9349 79.0717 23.9349ZM80.0038 20.6644C81.1829 20.6644 82.0995 20.272 82.7537 19.4866C83.4071 18.7018 83.8196 17.7323 83.9918 16.576H80.4858C79.3925 16.576 78.6097 16.7775 78.1381 17.1807C77.6665 17.5846 77.4307 18.0801 77.4307 18.6687C77.4307 19.3011 77.6665 19.7919 78.1381 20.1405C78.6104 20.4904 79.2321 20.6644 80.0038 20.6644Z" fill="black" style="fill:black;fill-opacity:1;"/>
<path d="M99.1746 23.9349C97.5213 23.9349 96.0637 23.5756 94.8025 22.8555C93.5406 22.136 92.5464 21.1334 91.8176 19.8469C91.0888 18.5604 90.7251 17.0885 90.7251 15.4318C90.7251 13.7752 91.0888 12.3032 91.8176 11.0167C92.5464 9.73093 93.5406 8.72766 94.8025 8.0082C96.0637 7.28874 97.5213 6.92871 99.1746 6.92871C101.24 6.92871 102.98 7.46813 104.394 8.54761C105.807 9.6271 106.71 11.1152 107.101 13.0119H102.698C102.48 12.2271 102.05 11.6108 101.409 11.1637C100.768 10.7174 100.011 10.4935 99.1423 10.4935C97.9892 10.4935 97.0099 10.9298 96.2054 11.8016C95.4009 12.6734 94.9982 13.8837 94.9982 15.4318C94.9982 16.98 95.4009 18.1902 96.2054 19.0621C97.0099 19.9345 97.9892 20.3701 99.1423 20.3701C100.011 20.3701 100.768 20.1523 101.409 19.7161C102.05 19.2805 102.48 18.6588 102.698 17.8517H107.101C106.71 19.683 105.807 21.155 104.394 22.2668C102.98 23.3787 101.24 23.9349 99.1746 23.9349Z" fill="black" style="fill:black;fill-opacity:1;"/>
<path d="M116.922 23.9348C115.317 23.9348 114.031 23.5165 113.064 22.6793C112.097 21.8426 111.613 20.3555 111.613 18.2183V11.0801H108.991V7.54429H111.613L112.077 3.14941H115.564V7.54429H119.699V11.0801H115.564V18.251C115.564 19.044 115.723 19.5897 116.042 19.8867C116.361 20.1844 116.911 20.333 117.694 20.333H119.607V23.9348H116.922Z" fill="black" style="fill:black;fill-opacity:1;"/>
<path d="M129.777 24.5648C128.229 24.5648 126.836 24.1922 125.601 23.4454C124.365 22.6994 123.387 21.6646 122.668 20.3425C121.948 19.0196 121.588 17.4884 121.588 15.7468C121.588 14.0058 121.953 12.4739 122.684 11.1511C123.415 9.82819 124.397 8.79407 125.635 8.04809C126.87 7.30204 128.261 6.92871 129.809 6.92871C131.334 6.92871 132.715 7.30136 133.952 8.04809C135.187 8.79407 136.165 9.82819 136.885 11.1511C137.605 12.4739 137.965 14.0058 137.965 15.7468C137.965 17.4884 137.605 19.0196 136.885 20.3425C136.165 21.6653 135.182 22.6994 133.935 23.4454C132.688 24.1922 131.301 24.5648 129.777 24.5648ZM129.777 20.8005C130.85 20.8005 131.785 20.3767 132.581 19.5286C133.376 18.6805 133.774 17.4206 133.774 15.7475C133.774 14.0743 133.376 12.8137 132.581 11.9663C131.785 11.1182 130.861 10.6945 129.808 10.6945C128.713 10.6945 127.771 11.1182 126.987 11.9663C126.202 12.8144 125.81 14.0743 125.81 15.7475C125.81 17.4206 126.202 18.6812 126.987 19.5286C127.772 20.3767 128.701 20.8005 129.777 20.8005Z" fill="black" style="fill:black;fill-opacity:1;"/>
<path d="M141.114 23.9349V7.33035H144.832L145.223 10.4437C145.81 9.37257 146.609 8.51885 147.62 7.88316C148.632 7.24686 149.822 6.92871 151.192 6.92871V11.4478H150.018C149.105 11.4478 148.289 11.5935 147.572 11.8827C146.854 12.1733 146.294 12.6749 145.892 13.3893C145.489 14.1043 145.288 15.0968 145.288 16.3687V23.9343L141.114 23.9349Z" fill="black" style="fill:black;fill-opacity:1;"/>
<path d="M149.213 37.1929V33.9449C149.213 32.6853 148.526 32.0398 147.485 32.0398C146.423 32.0398 145.684 32.7061 145.684 34.0907V37.1929H144.956V31.5089H145.684V32.4771C146.049 31.7691 146.777 31.4048 147.621 31.4048C148.912 31.4048 149.932 32.196 149.932 33.8616V37.1929H149.213Z" fill="black" style="fill:black;fill-opacity:1;"/>
<path d="M143.627 34.3511C143.627 36.1521 142.368 37.2764 140.765 37.2764C139.161 37.2764 137.943 36.1521 137.943 34.3511C137.943 32.5397 139.193 31.4258 140.785 31.4258C142.389 31.4258 143.627 32.5397 143.627 34.3511ZM138.683 34.3511C138.683 35.9126 139.682 36.6414 140.765 36.6414C141.837 36.6414 142.878 35.9126 142.878 34.3511C142.878 32.7895 141.858 32.0608 140.775 32.0608C139.692 32.0608 138.683 32.7895 138.683 34.3511Z" fill="black" style="fill:black;fill-opacity:1;"/>
<path d="M135.897 37.1929V31.5088H136.626V37.1929H135.897ZM136.261 30.4365C135.97 30.4365 135.73 30.2075 135.73 29.8952C135.73 29.5829 135.97 29.3643 136.261 29.3643C136.553 29.3643 136.792 29.5829 136.792 29.8952C136.792 30.2075 136.553 30.4365 136.261 30.4365Z" fill="black" style="fill:black;fill-opacity:1;"/>
<path d="M132.395 35.6526V32.1234H131.604V31.5092H132.395V30.083H133.134V31.5092H134.696V32.1234H133.134V35.6526C133.134 36.35 133.374 36.5687 134.03 36.5687H134.696V37.1933H133.915C132.926 37.1933 132.395 36.7873 132.395 35.6526Z" fill="black" style="fill:black;fill-opacity:1;"/>
<path d="M124.829 34.3407C124.829 32.5605 125.984 31.4258 127.546 31.4258C128.691 31.4258 129.472 32.04 129.794 32.7583V31.5091H130.523V37.1931H129.794V35.9335C129.461 36.6622 128.67 37.2764 127.535 37.2764C125.984 37.2764 124.829 36.1209 124.829 34.3407ZM129.794 34.3511C129.794 32.9353 128.847 32.0608 127.681 32.0608C126.484 32.0608 125.568 32.8936 125.568 34.3407C125.568 35.7773 126.484 36.6414 127.681 36.6414C128.847 36.6414 129.794 35.7669 129.794 34.3511Z" fill="black" style="fill:black;fill-opacity:1;"/>
<path d="M118.792 31.5093H119.573L121.489 36.4854L123.404 31.5093H124.175L121.895 37.1933H121.072L118.792 31.5093Z" fill="black" style="fill:black;fill-opacity:1;"/>
<path d="M118.14 34.3511C118.14 36.1521 116.88 37.2764 115.277 37.2764C113.674 37.2764 112.456 36.1521 112.456 34.3511C112.456 32.5397 113.705 31.4258 115.298 31.4258C116.901 31.4258 118.14 32.5397 118.14 34.3511ZM113.195 34.3511C113.195 35.9126 114.195 36.6414 115.277 36.6414C116.35 36.6414 117.391 35.9126 117.391 34.3511C117.391 32.7895 116.37 32.0608 115.288 32.0608C114.205 32.0608 113.195 32.7895 113.195 34.3511Z" fill="black" style="fill:black;fill-opacity:1;"/>
<path d="M110.459 37.1929V33.9449C110.459 32.6853 109.772 32.0398 108.731 32.0398C107.67 32.0398 106.93 32.7061 106.93 34.0907V37.1929H106.202V31.5089H106.93V32.4771C107.295 31.7691 108.023 31.4048 108.867 31.4048C110.158 31.4048 111.178 32.196 111.178 33.8616V37.1929H110.459Z" fill="black" style="fill:black;fill-opacity:1;"/>
<path d="M103.872 37.1929V33.9449C103.872 32.6853 103.185 32.0398 102.143 32.0398C101.082 32.0398 100.342 32.7061 100.342 34.0907V37.1929H99.6138V31.5089H100.342V32.4771C100.707 31.7691 101.436 31.4048 102.279 31.4048C103.57 31.4048 104.59 32.196 104.59 33.8616V37.1929H103.872Z" fill="black" style="fill:black;fill-opacity:1;"/>
<path d="M97.2349 37.1933V29.9165H97.9636V37.1933H97.2349Z" fill="black" style="fill:black;fill-opacity:1;"/>
<path d="M91.0498 31.4159H90.3211C90.3315 30.76 89.8526 30.406 89.2904 30.406C88.645 30.406 88.2182 30.8016 88.2182 31.3534C88.2182 31.8219 88.4784 32.207 88.9781 32.738L91.3725 35.1636C91.5079 34.9762 91.6328 34.768 91.7681 34.539L92.4344 33.4251H93.2152L92.424 34.7888C92.2366 35.1115 92.0492 35.403 91.8618 35.6633L93.3817 37.1936H92.4344L91.4454 36.1838C90.7375 36.9542 89.9671 37.3185 88.9469 37.3185C87.479 37.3185 86.4692 36.4441 86.4692 35.1115C86.4692 34.0913 87.0626 33.3105 88.1869 32.8733C87.6977 32.3424 87.4895 31.9051 87.4895 31.3638C87.4895 30.4477 88.2078 29.8022 89.3217 29.8022C90.3627 29.8022 91.0914 30.4581 91.0498 31.4159ZM88.9469 36.6835C89.7693 36.6835 90.3835 36.3712 90.9665 35.6945L88.645 33.3418C87.656 33.7061 87.198 34.2891 87.198 35.0907C87.198 36.0068 87.9163 36.6835 88.9469 36.6835Z" fill="black" style="fill:black;fill-opacity:1;"/>
<path d="M80.4274 36.3605L82.3012 31.5093H83.0508L79.6778 39.8688H78.9179L80.0214 37.1621L77.6895 31.5093H78.491L80.4274 36.3605Z" fill="black" style="fill:black;fill-opacity:1;"/>
<path d="M71.0078 34.3407C71.0078 32.5605 72.1634 31.4258 73.7249 31.4258C74.8492 31.4258 75.6508 32.0296 75.9736 32.7479V31.5091H76.7023V37.3389C76.7023 38.9317 75.6092 39.9831 74.0476 39.9831C72.5798 39.9831 71.5596 39.2336 71.3305 38.0468H72.0488C72.2883 38.8171 73.0066 39.3481 74.0476 39.3481C75.1303 39.3481 75.9736 38.6298 75.9736 37.3389V35.9335C75.6404 36.6622 74.8492 37.2764 73.7249 37.2764C72.1634 37.2764 71.0078 36.1209 71.0078 34.3407ZM75.9736 34.3511C75.9736 32.9353 75.0262 32.0608 73.8603 32.0608C72.6631 32.0608 71.7469 32.8936 71.7469 34.3407C71.7469 35.7773 72.6631 36.6414 73.8603 36.6414C75.0262 36.6414 75.9736 35.7669 75.9736 34.3511Z" fill="black" style="fill:black;fill-opacity:1;"/>
<path d="M70.0127 34.3511C70.0127 36.1521 68.753 37.2764 67.1498 37.2764C65.5466 37.2764 64.3286 36.1521 64.3286 34.3511C64.3286 32.5397 65.5779 31.4258 67.1706 31.4258C68.7738 31.4258 70.0127 32.5397 70.0127 34.3511ZM65.0678 34.3511C65.0678 35.9126 66.0671 36.6414 67.1498 36.6414C68.2221 36.6414 69.2631 35.9126 69.2631 34.3511C69.2631 32.7895 68.2429 32.0608 67.1602 32.0608C66.0776 32.0608 65.0678 32.7895 65.0678 34.3511Z" fill="black" style="fill:black;fill-opacity:1;"/>
<path d="M62.2827 37.1934V29.4897H63.0114V37.1934H62.2827Z" fill="black" style="fill:black;fill-opacity:1;"/>
<path d="M60.9551 34.3511C60.9551 36.1521 59.6954 37.2764 58.0922 37.2764C56.489 37.2764 55.271 36.1521 55.271 34.3511C55.271 32.5397 56.5202 31.4258 58.113 31.4258C59.7162 31.4258 60.9551 32.5397 60.9551 34.3511ZM56.0101 34.3511C56.0101 35.9126 57.0095 36.6414 58.0922 36.6414C59.1645 36.6414 60.2055 35.9126 60.2055 34.3511C60.2055 32.7895 59.1853 32.0608 58.1026 32.0608C57.0199 32.0608 56.0101 32.7895 56.0101 34.3511Z" fill="black" style="fill:black;fill-opacity:1;"/>
<path d="M53.2735 37.1929V33.9449C53.2735 32.6853 52.5864 32.0398 51.5453 32.0398C50.4835 32.0398 49.7444 32.7061 49.7444 34.0907V37.1929H49.0156V31.5089H49.7444V32.4771C50.1087 31.7691 50.8374 31.4048 51.6807 31.4048C52.9716 31.4048 53.9918 32.196 53.9918 33.8616V37.1929H53.2735Z" fill="black" style="fill:black;fill-opacity:1;"/>
<path d="M42.4277 37.1934V29.4897H43.1565V32.4775C43.5208 31.78 44.2704 31.4053 45.1344 31.4053C46.3941 31.4053 47.4039 32.1964 47.4039 33.8621V37.1934H46.6856V33.9454C46.6856 32.6857 45.9985 32.0403 44.9575 32.0403C43.8956 32.0403 43.1565 32.7065 43.1565 34.0911V37.1934H42.4277Z" fill="black" style="fill:black;fill-opacity:1;"/>
<path d="M35.7104 34.3511C35.7104 32.5501 36.866 31.4258 38.4692 31.4258C39.8954 31.4258 40.8219 32.1857 41.0822 33.3621H40.3014C40.114 32.5501 39.4269 32.0504 38.4692 32.0504C37.3553 32.0504 36.4496 32.8104 36.4496 34.3511C36.4496 35.8918 37.3553 36.6622 38.4692 36.6622C39.4269 36.6622 40.1036 36.1729 40.3014 35.3401H41.0822C40.8219 36.4748 39.8954 37.2764 38.4692 37.2764C36.866 37.2764 35.7104 36.1521 35.7104 34.3511Z" fill="black" style="fill:black;fill-opacity:1;"/>
<path d="M31.9931 32.0504C30.9625 32.0504 30.0568 32.7167 29.9735 34.0388H33.9711C34.0023 32.7167 33.0446 32.0504 31.9931 32.0504ZM34.6269 35.3921C34.3667 36.4644 33.4506 37.2764 32.0244 37.2764C30.4107 37.2764 29.2344 36.1521 29.2344 34.3511C29.2344 32.5397 30.3899 31.4258 32.0244 31.4258C33.69 31.4258 34.7102 32.6126 34.7102 34.0596C34.7102 34.2886 34.7102 34.4344 34.6894 34.6322H29.9735C30.036 35.9647 30.9625 36.6622 32.0244 36.6622C32.9925 36.6622 33.6484 36.1521 33.8566 35.3921H34.6269Z" fill="black" style="fill:black;fill-opacity:1;"/>
<path d="M23.6382 30.5203V29.9165H28.4165V30.5203H26.3969V37.1933H25.6682V30.5203H23.6382Z" fill="black" style="fill:black;fill-opacity:1;"/>
</svg>
